<svg xmlns="http://www.w3.org/2000/svg" viewBox="0 0 227.08 302"><defs><style>.cls-1{fill:#a30000;}.cls-1,.cls-2{stroke:#000;stroke-miterlimit:10;stroke-width:2px;fill-rule:evenodd;}.cls-2{fill:#c00;}.cls-3{opacity:0.18;}</style></defs><title>Big Pipe</title><g id="Layer_2" data-name="Layer 2"><g id="Layer_1-2" data-name="Layer 1"><polygon class="cls-1" points="224.08 1 153.08 1 151.08 1 149.08 1 78.08 1 76.08 1 74.08 1 3.08 1 1.08 1 1.08 3 1.08 74 1.08 76 3.08 76 76.08 76 78.08 76 151.08 76 153.08 76 226.08 76 226.08 3 226.08 1 224.08 1"/><polygon class="cls-1" points="194.88 76 152.28 76 151.08 76 149.08 76 79.08 76 78.08 76 77.8 76 76.08 76 32.36 76 31.08 76 31.08 78 31.08 149 31.08 151 31.08 153 31.08 224 31.08 226 31.08 228 31.08 299 31.08 301 32.36 301 76.08 301 78.08 301 79.08 301 151.08 301 152.28 301 196.08 301 196.08 228 196.08 226 196.08 153 196.08 151 196.08 78 196.08 76 194.88 76"/><polyline class="cls-2" points="66.08 301 65.81 301 56.53 301 56.11 301 55.9 301 40.62 301 40.37 301 31.08 301 31.08 226 31.08 153 31.08 151 31.08 78 31.08 76 31.33 76 40.37 76 40.62 76 41.05 76 55.9 76 56.11 76 56.17 76 56.53 76 65.81 76 66.08 76"/><polyline class="cls-2" points="46 1 45.65 1 33.73 1.02 33.18 1.03 32.91 1.03 13.27 1.07 12.95 1.07 1 1.09 1.05 25.42 1.05 26.09 1.1 50.42 1.1 51.09 1.15 75.42 1.15 76.09 1.48 76.09 13.1 76.07 13.43 76.07 13.97 76.06 33.06 76.03 33.33 76.03 33.41 76.03 33.88 76.03 45.8 76 46.15 76"/><polyline class="cls-1" points="33.08 76 1.08 76 1.08 1 33.08 1"/><polyline class="cls-1" points="52.08 301 30.08 301 30.08 76 52.08 76"/><rect class="cls-3" x="29.58" y="76.5" width="167" height="9.5"/></g></g></svg>