<svg xmlns="http://www.w3.org/2000/svg" viewBox="0 0 75 75"><defs><style>.cls-1{fill:#ec7a08;}.cls-2{fill:#f0ab00;}</style></defs><title>Block</title><g id="Layer_2" data-name="Layer 2"><g id="Layer_1-2" data-name="Layer 1"><rect y="2" width="75" height="73"/><rect x="2" width="73" height="75"/><rect class="cls-1" width="73" height="73"/><rect x="39" y="57" width="10" height="10"/><rect x="39" y="38" width="10" height="13"/><rect x="41" y="34" width="13" height="4"/><rect x="18" y="15.7" width="9" height="15.3"/><rect x="45" y="16" width="9" height="18"/><rect x="23" y="11" width="25" height="5"/><rect class="cls-2" x="43" y="14" width="9" height="18"/><rect class="cls-2" x="39" y="32" width="13" height="4"/><rect class="cls-2" x="37" y="36" width="10" height="13"/><rect class="cls-2" x="21" y="9" width="25" height="5"/><rect class="cls-2" x="37" y="55" width="10" height="10"/><rect class="cls-2" x="16" y="14" width="9" height="15.3"/><rect x="3" y="67" width="4" height="4"/><rect x="67" y="67" width="4" height="4"/><rect x="3" y="2" width="4" height="4"/><rect x="67" y="2" width="4" height="4"/></g></g></svg>