<svg xmlns="http://www.w3.org/2000/svg" viewBox="0 0 322.03 156.93"><defs><style>.cls-1{fill:#eae8e8;}.cls-1,.cls-2{fill-rule:evenodd;}.cls-2{fill:#fff;}</style></defs><title>Clouds</title><g id="Layer_2" data-name="Layer 2"><g id="Layer_1-2" data-name="Layer 1"><path class="cls-1" d="M251,60.26c-2.06-7.56-10.35-12.69-22.24-15,5.27-6,7.5-11.53,5.82-15.83-4.15-10.59-30.75-10.44-63.17-.77-7.44-4.61-17.4-7.43-28.36-7.43-23,0-41.69,12.44-41.69,27.79a20.24,20.24,0,0,0,3.7,11.44C91.65,70.59,84.53,80.41,87.19,87.2c2.9,7.39,16.75,9.55,35.88,6.88.07.35.13.7.22,1,2.9,10.63,18.1,16.46,38.33,16.34,6.26,6.95,14.33,11.14,23.15,11.14,13.21,0,24.75-9.4,31-23.39C239.56,88.47,254.47,72.88,251,60.26Z"/><path class="cls-2" d="M164.39,39c-2.06-7.56-10.35-12.69-22.24-15,5.27-6,7.5-11.53,5.82-15.83C143.83-2.39,117.23-2.24,84.8,7.43,77.36,2.82,67.4,0,56.44,0c-23,0-41.69,12.44-41.69,27.79a20.24,20.24,0,0,0,3.7,11.44C5,49.34-2.11,59.16.55,65.95c2.9,7.39,16.75,9.55,35.88,6.88.07.35.13.7.22,1C39.55,84.5,54.75,90.33,75,90.21c6.26,6.95,14.33,11.14,23.15,11.14,13.21,0,24.75-9.4,31-23.39C152.92,67.22,167.83,51.63,164.39,39Z"/><path class="cls-2" d="M289.92,88.3a24,24,0,0,0-2.48-5.16A41.71,41.71,0,0,0,295.93,58c0-24.83-22.32-45-49.86-45S196.21,33.2,196.21,58a41,41,0,0,0,.23,4.28c-22.36,5.77-37.83,18.15-37.83,32.5,0,8.58,5.54,16.46,14.77,22.64,1.19,22,20.1,39.48,43.26,39.48a44.09,44.09,0,0,0,29.57-11.23c32.05,15.67,64.75,14.49,73.59-2.91C327.55,127.56,314.47,104.89,289.92,88.3Z"/></g></g></svg>