<svg xmlns="http://www.w3.org/2000/svg" viewBox="0 0 276.5 393"><defs><style>.cls-1{fill:#3f9c35;stroke-width:2px;}.cls-1,.cls-3{stroke:#000;}.cls-1,.cls-3,.cls-5{stroke-miterlimit:10;}.cls-1,.cls-2{fill-rule:evenodd;}.cls-2{fill:#5e6a71;}.cls-3{fill:#c00000;}.cls-4{fill:#7a858b;}.cls-5{fill:none;stroke:#5e6a71;}.cls-6{fill:#fff;}.cls-7{fill:#e12434;}</style></defs><title>Flag</title><g id="Layer_2" data-name="Layer 2"><g id="Layer_1-2" data-name="Layer 1"><polygon class="cls-1" points="273.5 317 202.5 317 200.5 317 198.5 317 127.5 317 125.5 317 123.5 317 52.5 317 50.5 317 50.5 319 50.5 390 50.5 392 52.5 392 125.5 392 127.5 392 200.5 392 202.5 392 275.5 392 275.5 319 275.5 317 273.5 317"/><polygon class="cls-2" points="107.5 22 107.5 169 107.5 316 119.5 316 119.5 169 119.5 22 107.5 22"/><rect class="cls-3" x="0.5" y="31" width="107" height="61.69"/><circle class="cls-4" cx="113" cy="12.5" r="12.5"/><path class="cls-5" d="M104.29,9.71c1.54-4.15,5.3-6.57,8.41-5.41"/><path class="cls-6" d="M36,67.46h.14l.21.35h.14l-.23-.35a.21.21,0,0,0,.21-.22c0-.16-.09-.23-.28-.23h-.31v.8H36Zm0-.1v-.25h.17c.08,0,.17,0,.17.12s-.09.13-.19.13Z"/><path class="cls-6" d="M36.94,67.41a.79.79,0,1,1-.79-.79A.79.79,0,0,1,36.94,67.41Zm-.79-.65a.65.65,0,1,0,.65.65A.65.65,0,0,0,36.16,66.76Z"/><path class="cls-6" d="M31.8,68.07a7.59,7.59,0,0,0-2.84.5.25.25,0,0,0-.14.22.26.26,0,0,0,0,.1c.09.25-.06.53-.77.68C27,69.81,26.35,70.9,26,71.26s-1.72.69-1.53.43a9.4,9.4,0,0,0,1.07-1.49,12.49,12.49,0,0,1,1-1.34,4.87,4.87,0,0,0,.67-1.22,8.66,8.66,0,0,0,.15-1.26,11,11,0,0,0,.42-1.49c0-.24-1,.34-1.45.34s-.93-.28-1.35-.3-.86.4-1.33.33c-.27,0-.5-.28-1-.3a25.25,25.25,0,0,1-3,.32c-1.51,0-2.91-1.91-3.1-2.21s-.5-.35-.79-.07a.51.51,0,0,1-.77-.13c-.2-.35-.73-1.36-1.55-1.58a1.26,1.26,0,0,0-1.64,1.37c.08.75.56,1,.78,1.35s.34.65.76.83.41.31.32.55-.39.26-.59.27a1.58,1.58,0,0,1-1-.24,2.12,2.12,0,0,1-.69-.78A1.27,1.27,0,0,0,10.2,64a1.37,1.37,0,0,0-.63.16,5.63,5.63,0,0,1-2.6.62H5.89a15.55,15.55,0,0,0,27.79,3.48A8.45,8.45,0,0,0,31.8,68.07Z"/><path d="M24,66.86l0,0a2.76,2.76,0,0,1-.43.43c-.35.28-.75,0-1-.19-.57-.33-1-.12-1.14.14s0,.58.32.53.45,0,.77.21a1,1,0,0,0,1.23,0,1.32,1.32,0,0,0,.38-.45.59.59,0,0,0,0-.67Z"/><path d="M20.62,44.3A15.56,15.56,0,0,0,5.89,64.81H7a5.63,5.63,0,0,0,2.6-.62A1.38,1.38,0,0,1,10.2,64a1.27,1.27,0,0,1,1.15.61,2.1,2.1,0,0,0,.69.78,1.57,1.57,0,0,0,1,.24c.2,0,.51-.06.59-.27s0-.43-.32-.55-.54-.43-.76-.83-.71-.61-.78-1.35a1.26,1.26,0,0,1,1.64-1.36c.82.21,1.35,1.23,1.55,1.58a.51.51,0,0,0,.77.12c.3-.27.57-.27.79.07s1.59,2.16,3.1,2.21a25.34,25.34,0,0,0,3-.32c.47,0,.7.25,1,.3.47.07.81-.35,1.33-.33s.88.3,1.35.3,1.47-.57,1.45-.33a11,11,0,0,1-.42,1.49,8.67,8.67,0,0,1-.15,1.26,4.89,4.89,0,0,1-.67,1.22,12.51,12.51,0,0,0-1,1.34,9.43,9.43,0,0,1-1.07,1.49c-.19.25,1.08,0,1.53-.43s1.05-1.46,2.11-1.69c.71-.16.86-.43.77-.68a.25.25,0,0,1,.12-.32,7.62,7.62,0,0,1,2.84-.5,8.39,8.39,0,0,1,1.88.22,15.55,15.55,0,0,0-13.05-24Z"/><path class="cls-7" d="M29.4,55.71a2.43,2.43,0,0,1-1.34,1.68c-.14.07-.2,0-.13-.16a7.49,7.49,0,0,0,.54-1,2.85,2.85,0,0,0-.07-1.94c-.58-2.1-1.8-4.92-2.69-5.83a4,4,0,0,0-3.81-.77,5.62,5.62,0,0,1-3.4.24c-3.24-.73-3.72.89-3.91,1.6S14,52.21,14,52.21c-.15.82-.34,2.24,4.69,3.2,2.34.45,2.46,1.05,2.57,1.49A2.3,2.3,0,0,0,22,58.35c.33.22,0,.41-.37.45-1,.1-4.69-1-6.87-2.19C13,55.51,13,54.53,13.38,53.69c-2.7-.29-4.72.25-5.09,1.53-.63,2.19,4.82,5.94,11,7.81,6.51,2,13.21.59,14-3.5C33.6,57.68,32,56.3,29.4,55.71Zm-10-4c-1.8.13-2,.32-2.32.68s-1.1-.66-1.1-.66a1,1,0,0,1-.58-1.25c.24-.56.69-.39.83-.22a1.33,1.33,0,0,0,1,.55c.47,0,1-.11,1.77-.11s1.29.29,1.31.53S20.27,51.64,19.41,51.7Zm3.88-1.79a3.54,3.54,0,0,1-.89-.13.07.07,0,0,1,0-.13c.62-.14,1-.38,1-.6s-.85-.45-1.82-.36l-.31,0h0a0,0,0,0,1-.05,0,0,0,0,0,1,0,0,4.18,4.18,0,0,1,1.46-.39l.52,0h.09c1,0,1.79.42,1.78.88S24.3,49.94,23.3,49.91Z"/><path class="cls-6" d="M44.1,60.83c0-1.43,0-2.47-.09-3.42h2.33l.1,2h.08a3.17,3.17,0,0,1,2.92-2.26,2.56,2.56,0,0,1,.63.06v2.54a3.94,3.94,0,0,0-.81-.08,2.37,2.37,0,0,0-2.41,2,4.45,4.45,0,0,0-.07.81v5.52H44.07Z"/><path class="cls-6" d="M53.32,63.45c.07,1.93,1.56,2.77,3.29,2.77a8.11,8.11,0,0,0,2.94-.49l.4,1.85a9.63,9.63,0,0,1-3.72.68c-3.46,0-5.48-2.14-5.48-5.4,0-2.94,1.78-5.72,5.21-5.72s4.59,2.85,4.59,5.18a6,6,0,0,1-.1,1.15ZM58,61.58A2.29,2.29,0,0,0,55.78,59a2.64,2.64,0,0,0-2.47,2.6Z"/><path class="cls-6" d="M92.42,65.52a17.47,17.47,0,0,0,.16,2.53h-1l-.15-1.53H91.4A4,4,0,0,1,88,68.3a2.91,2.91,0,0,1-3.14-2.93c0-2.46,2.17-3.94,6.51-3.9v-.28c0-1.05-.21-3.16-2.73-3.14a4.68,4.68,0,0,0-2.68.79l-.34-.77a5.73,5.73,0,0,1,3.13-.92c3.08,0,3.66,2.31,3.66,4.21Zm-1.05-3.17C89,62.29,86,62.64,86,65.2a2,2,0,0,0,2.12,2.22,3.21,3.21,0,0,0,3.15-2.14,2.07,2.07,0,0,0,.11-.64Z"/><path class="cls-6" d="M96.62,55v2.35h3v.86h-3v6.93c0,1.36.42,2.2,1.57,2.2a3.71,3.71,0,0,0,1.21-.17l.13.82a3.81,3.81,0,0,1-1.47.26,2.27,2.27,0,0,1-1.84-.76A3.9,3.9,0,0,1,95.57,65V58.25h-1.8v-.86h1.8v-2Z"/><path class="cls-6" d="M101,67.49h.14l.21.35h.14l-.23-.35a.21.21,0,0,0,.21-.22c0-.16-.09-.23-.28-.23h-.31v.8H101Zm0-.1v-.25h.17c.08,0,.17,0,.17.12s-.09.13-.19.13Z"/><path class="cls-6" d="M101.92,67.43a.79.79,0,1,1-.79-.79A.79.79,0,0,1,101.92,67.43Zm-.79-.65a.65.65,0,1,0,.65.65A.65.65,0,0,0,101.14,66.79Z"/><path class="cls-6" d="M69.45,58.55h0a3.37,3.37,0,0,0-3-1.39c-2.56,0-4.79,2.12-4.78,5.69,0,3.27,2,5.44,4.56,5.44a3.8,3.8,0,0,0,3.46-1.93h0l.12,1.69h2.4c0-.72-.09-1.9-.09-3V53.31l-2.69-.77Zm0,4.89a3.18,3.18,0,0,1-.08.79A2.39,2.39,0,0,1,67,66.14c-1.7,0-2.67-1.43-2.67-3.39s1-3.51,2.7-3.51a2.37,2.37,0,0,1,2.32,1.89,3.65,3.65,0,0,1,.06.7Z"/><path class="cls-6" d="M79.26,57.15a4.06,4.06,0,0,0-2.15.61,3.9,3.9,0,0,0-1.46,1.54h0v-5L74.56,54v14h1.05V61.53a3,3,0,0,1,.14-1.05A3.5,3.5,0,0,1,79,58.07c2.18,0,2.94,1.75,2.94,3.67v6.31H83V61.62C83,57.65,80.27,57.15,79.26,57.15Z"/></g></g></svg>