<svg xmlns="http://www.w3.org/2000/svg" viewBox="0 0 232 140.33"><defs><style>.cls-1{fill:#244f1d;}.cls-1,.cls-2{fill-rule:evenodd;}.cls-2{fill:#3f9c35;}</style></defs><title>Large Mountains</title><g id="Layer_2" data-name="Layer 2"><g id="Layer_1-2" data-name="Layer 1"><path class="cls-1" d="M67,22,0,140.33H180.31L113.32,22A26.62,26.62,0,0,0,67,22Z"/><path class="cls-2" d="M125.82,9.34l-74.13,131H232l-74.13-131A18.41,18.41,0,0,0,125.82,9.34Z"/><path class="cls-1" d="M149.95,49.14c-3.56-6.3-3.08-12.89,1.08-14.72s10.41,1.78,14,8.07,3.08,12.89-1.08,14.72S153.51,55.43,149.95,49.14Z"/><path class="cls-1" d="M136.46,62.48c-3-5.38-2.53-11,1.14-12.67s9.11,1.42,12.16,6.8,2.53,11-1.14,12.67S139.5,67.86,136.46,62.48Z"/></g></g></svg>