<svg xmlns="http://www.w3.org/2000/svg" viewBox="0 0 68.28 74.76"><defs><style>.cls-1{fill:#ddd8c3;stroke:#000;stroke-miterlimit:10;}.cls-1,.cls-3,.cls-5{fill-rule:evenodd;}.cls-2,.cls-3{fill:#c00000;}.cls-4,.cls-5{fill:#fff;}</style></defs><title>Mushroom</title><g id="Layer_2" data-name="Layer 2"><g id="Layer_1-2" data-name="Layer 1"><path class="cls-1" d="M42.33,74.26A51.43,51.43,0,0,0,44.73,58c0-13.8-4.48-25-10-25s-10,11.19-10,25a51.43,51.43,0,0,0,2.4,16.22Z"/><ellipse class="cls-2" cx="15.11" cy="10.59" rx="6.57" ry="1.12" transform="translate(-2.41 16.37) rotate(-53.27)"/><path class="cls-3" d="M54,50.92,44,48.64,36.87,47a9.91,9.91,0,0,0-4.37,0l-7,1.51-9.91,2.14A13.3,13.3,0,0,1,1.83,30.86L11.62,14h0c.21-.18.4-.35.58-.53a6.6,6.6,0,0,0,2.14-1.35A6.91,6.91,0,0,0,16.21,9a7.55,7.55,0,0,0,.31-1.9v0c.17-.18.35-.35.53-.51s.57-.54.86-.78A24.24,24.24,0,0,1,51,7.31a6.16,6.16,0,0,1,.43.46c.12.12.23.25.34.37l0,.09c.07.16.15.31.23.46A5.67,5.67,0,0,0,52,12a6.53,6.53,0,0,0,4.59,4.24,6.5,6.5,0,0,0,2.14,3l0,.06.7,1.23L66.65,33A12.07,12.07,0,0,1,54,50.92Z"/><circle class="cls-4" cx="20.09" cy="31.88" r="10.46"/><circle class="cls-4" cx="54.63" cy="38.59" r="5.5" transform="translate(-12.25 39.43) rotate(-35.95)"/><path class="cls-5" d="M58.75,19.28a6.17,6.17,0,0,1-1,.9,6,6,0,0,1-.57.36,6.93,6.93,0,0,1-9-2.11,6.91,6.91,0,0,1,1.32-9.69,5.7,5.7,0,0,1,1.09-.63,4.48,4.48,0,0,1,.9-.34c.12.12.23.25.34.37l0,.09c.07.16.15.31.23.46A5.67,5.67,0,0,0,52,12a6.53,6.53,0,0,0,4.59,4.24,6.5,6.5,0,0,0,2.14,3Z"/></g></g></svg>