<svg xmlns="http://www.w3.org/2000/svg" viewBox="0 0 143.08 190.04"><defs><style>.cls-1{fill:#a30000;}.cls-1,.cls-2{stroke:#000;stroke-miterlimit:10;stroke-width:2px;fill-rule:evenodd;}.cls-2{fill:#c00;}.cls-3{opacity:0.18;}</style></defs><title>Small Pipe</title><g id="Layer_2" data-name="Layer 2"><g id="Layer_1-2" data-name="Layer 1"><polygon class="cls-1" points="140.82 1 96.32 1 95.07 1 93.81 1 49.31 1 48.06 1 46.8 1 2.3 1 1.05 1 1.05 2.26 1.05 46.76 1.05 48.01 2.3 48.01 48.06 48.01 49.31 48.01 95.07 48.01 96.32 48.01 142.08 48.01 142.08 2.26 142.08 1 140.82 1"/><polygon class="cls-1" points="122.52 48.01 95.82 48.01 95.07 48.01 93.81 48.01 49.94 48.01 49.31 48.01 49.14 48.01 48.06 48.01 20.66 48.01 19.85 48.01 19.85 49.27 19.85 93.77 19.85 95.02 19.85 96.28 19.85 140.78 19.85 142.03 19.85 143.28 19.85 187.79 19.85 189.04 20.66 189.04 48.06 189.04 49.31 189.04 49.94 189.04 95.07 189.04 95.82 189.04 123.27 189.04 123.27 143.28 123.27 142.03 123.27 96.28 123.27 95.02 123.27 49.27 123.27 48.01 122.52 48.01"/><polyline class="cls-2" points="41.79 189.04 41.62 189.04 35.81 189.04 35.54 189.04 35.41 189.04 25.84 189.04 25.68 189.04 19.85 189.04 19.85 142.03 19.85 96.28 19.85 95.02 19.85 49.27 19.85 48.01 20.01 48.01 25.68 48.01 25.84 48.01 26.1 48.01 35.41 48.01 35.54 48.01 35.58 48.01 35.81 48.01 41.62 48.01 41.79 48.01"/><polyline class="cls-2" points="29.21 1 28.99 1 21.52 1.01 21.17 1.02 21 1.02 8.69 1.04 8.49 1.04 1 1.06 1.03 16.31 1.03 16.73 1.06 31.98 1.06 32.4 1.09 47.65 1.1 48.07 1.3 48.06 8.58 48.05 8.79 48.05 9.13 48.05 21.1 48.03 21.27 48.02 21.32 48.02 21.61 48.02 29.08 48.01 29.3 48.01"/><polyline class="cls-1" points="21.11 48.01 1.05 48.01 1.05 1 21.11 1"/><polyline class="cls-1" points="33.02 189.04 19.23 189.04 19.23 48.01 33.02 48.01"/><rect class="cls-3" x="18.91" y="48.33" width="104.67" height="5.95"/></g></g></svg>